<?xml version="1.0" encoding="utf-8"?><svg fill="none" viewBox="0 0 1920 1080" xmlns="http://www.w3.org/2000/svg"><defs /><g id="Body Outlines"><g transform="translate(917.25,643.5)"><animateTransform repeatCount="indefinite" type="translate" attributeName="transform" dur="1s" begin="0s" calcMode="spline" values="917.25 643.5; 917.25 600.5; 917.25 643.5" keyTimes="0; 0.5; 1" keySplines="0.333 0 0.667 1; 0.333 0 0.667 1" fill="freeze" /><g transform="rotate(-7)"><animateTransform repeatCount="indefinite" type="rotate" attributeName="transform" dur="1s" begin="0s" calcMode="spline" values="-7; 0; -7" keyTimes="0; 0.5; 1" keySplines="0.333 0 0.667 1; 0.333 0 0.667 1" fill="freeze" /><g transform="scale(1,1) translate(-154.25,-89.5)"><g id="tails Outlines"><g transform="translate(314.75,152.25)"><g transform="rotate(0)"><animateTransform repeatCount="indefinite" type="rotate" attributeName="transform" dur="1s" begin="0s" calcMode="spline" values="0; -10; 0; -10; 0" keyTimes="0; 0.233; 0.5; 0.733; 1" keySplines="0.333 0 0.667 1; 0.333 0 0.667 1; 0.333 0 0.667 1; 0.333 0 0.667 1" fill="freeze" /><g transform="scale(1,1) translate(-46.25,-113)"><g id="Group 4" transform="matrix(1,0,0,1,185.846,174.874)"><path fill="#1d939f" fill-opacity="1" d="M-143.315,-82.238C-68.63,-27.686,120.998,70.727,122.006,3.526C122.19,-8.682,116.95,-19.47,110.895,-27.816C108.299,-31.395,112.749,-35.743,116.287,-33.09C127.649,-24.566,139.118,-11.521,139.934,6.701C143.315,82.238,-47.31,6.245,-140.684,-65.262L-143.315,-82.238Z" /></g><g id="Group 3" transform="matrix(1,0,0,1,177.86,120.117)"><path fill="#56d9b4" fill-opacity="1" d="M-132.07,-7.726C-132.07,-7.726,-4.497,119.511,63.821,100.511C112.449,86.987,126.886,85.789,141.198,69.516C174.836,31.27,147.505,17.801,117.997,44.108C101.921,58.44,87.145,72.084,59.733,85.893C-5.82,118.917,-133.238,-20.346,-133.238,-20.346" /></g><g id="Group 2" transform="matrix(1,0,0,1,98.343,169.935)"><path fill="#1a6b73" fill-opacity="1" d="M-75.285,-52.647C-75.285,-52.647,-56.872,-23.143,-29.152,3.47C-8.666,23.137,16.932,42.277,44.007,49.361C75.285,57.543,70.056,36.474,48.189,30.182C5.813,17.989,-52.553,-57.543,-52.553,-57.543L-75.285,-52.647Z" /></g><g id="Group 1" transform="matrix(1,0,0,1,35.066,145.347)"><path fill="#135056" fill-opacity="1" d="M-34.124,-22.955C-3.718,20.465,34.124,28.059,34.124,28.059C6.404,1.445,-12.009,-28.059,-12.009,-28.059L-34.124,-22.955Z" /></g></g></g></g></g></g></g></g></g><g id="Body Outlines"><g transform="translate(917.25,643.5)"><animateTransform repeatCount="indefinite" type="translate" attributeName="transform" dur="1s" begin="0s" calcMode="spline" values="917.25 643.5; 917.25 600.5; 917.25 643.5" keyTimes="0; 0.5; 1" keySplines="0.333 0 0.667 1; 0.333 0 0.667 1" fill="freeze" /><g transform="rotate(-7)"><animateTransform repeatCount="indefinite" type="rotate" attributeName="transform" dur="1s" begin="0s" calcMode="spline" values="-7; 0; -7" keyTimes="0; 0.5; 1" keySplines="0.333 0 0.667 1; 0.333 0 0.667 1" fill="freeze" /><g transform="scale(1,1) translate(-154.25,-89.5)"><g id="Wing1 Outlines"><g transform="translate(151,76.5)"><g transform="rotate(0)"><animateTransform repeatCount="indefinite" type="rotate" attributeName="transform" dur="0.167s" begin="0s" calcMode="spline" values="0; 31; 0" keyTimes="0; 0.5; 1" keySplines="0 0 1 1; 0 0 1 1" fill="freeze" /><g transform="scale(1,1)"><animateTransform repeatCount="indefinite" type="scale" attributeName="transform" dur="0.167s" begin="0s" calcMode="spline" values="1 1; 1 -0.807; 1 1" keyTimes="0; 0.5; 1" keySplines="0 0 1 1; 0 0 1 1" fill="freeze" /><g transform="translate(-69,-438)"><g id="Group 25" transform="matrix(1,0,0,1,113.381,228.192)"><path fill="#1c1c1c" fill-opacity="1" d="M-17.975,113.528C-16.664,113.655,-16.663,114.206,-17.952,114.374L-17.975,113.528ZM-56.831,227.566C-54.225,227.562,-46.457,226.548,-46.457,226.548C-36.679,226.54,-25.463,225.871,-13.559,224.445C22.864,220.081,51.654,210.405,50.747,202.833C50.427,200.162,46.395,198.124,39.785,196.778C54.905,193.861,64.613,189.592,64.528,184.99C64.444,180.519,55.169,176.695,40.685,174.323C60.492,171.833,73.85,167.534,73.763,162.882C73.68,158.386,61.043,154.695,42.258,152.868C60.96,150.345,73.45,146.187,73.366,141.692C73.304,138.367,66.364,135.485,55.178,133.465C70.2,130.914,79.837,127.222,79.763,123.272C79.696,119.637,71.4,116.532,58.319,114.506C76.493,112.844,88.171,109.609,88.37,105.386C88.536,101.835,80.557,98.219,67.346,95.164C84.647,92.229,95.986,87.578,95.892,82.541C95.803,77.727,85.252,73.667,69.135,71.317C88.601,67.697,101.566,62.667,101.214,58.05C100.845,53.197,85.859,50.126,64.41,49.723C93.229,40.966,112.475,32.177,111.375,27.47C110.177,22.348,85.248,23.574,51.373,29.743C81.323,16.747,101.349,4.715,99.589,-0.055C97.863,-4.734,75.668,-1.11,45.374,8.061C76.744,-8.869,97.892,-24.139,95.554,-28.983C93.083,-34.105,65.157,-25.931,29.627,-10.274C62.791,-34.766,85.463,-56.61,82.076,-61.463C78.882,-66.036,53.543,-54.076,21.823,-33.692C50.673,-66.358,69.604,-94.499,65.076,-98.655C61.093,-102.31,40.179,-86.296,14.74,-60.93C33.831,-99.001,44.629,-130.085,39.281,-132.917C34.316,-135.547,17.014,-112.958,-2.06,-79.946C-1.726,-81.183,-1.388,-82.396,-1.058,-83.649C11.554,-131.548,16.506,-171.766,10.001,-173.479C4.568,-174.91,-7.136,-148.985,-18.195,-112.507C-18.606,-116.448,-19.098,-120.7,-19.677,-125.306C-25.772,-173.806,-75.123,-227.588,-49.207,-128.572C-27.291,-44.846,-60.863,14.162,-71.753,30.389C-73.97,33.692,-75.481,37.396,-76.268,41.296L-112.475,227.203C-112.475,227.203,-70.883,227.588,-56.831,227.566Z" /></g><g id="Group 24" transform="matrix(1,0,0,1,104.174,189.936)"><path fill="#303030" fill-opacity="1" d="M-8.69,-4.706C-27.208,29.487,-38.329,59.313,-33.529,61.912C-28.73,64.511,-9.826,38.899,8.691,4.707C27.208,-29.486,38.329,-59.312,33.529,-61.912C28.73,-64.511,9.827,-38.899,-8.69,-4.706Z" /></g><g id="Group 23" transform="matrix(1,0,0,1,105.956,217.1)"><path fill="#303030" fill-opacity="1" d="M-7.599,-6.319C-29.315,19.797,-43.518,43.797,-39.321,47.287C-35.124,50.777,-14.117,32.435,7.599,6.319C29.316,-19.797,43.518,-43.797,39.322,-47.288C35.125,-50.777,14.118,-32.435,-7.599,-6.319Z" /></g><g id="Group 22" transform="matrix(1,0,0,1,104.159,246.371)"><path fill="#1cb7a8" fill-opacity="1" d="M-5.735,-8.049C-19.202,1.546,-27.551,12.928,-24.384,17.373C-21.217,21.818,-7.732,17.644,5.734,8.05C19.202,-1.545,27.551,-12.927,24.383,-17.372C21.216,-21.818,7.732,-17.644,-5.735,-8.049Z" /></g><g id="Group 21" transform="matrix(1,0,0,1,90.853,182.821)"><path fill="#303030" fill-opacity="1" d="M-9.509,-2.691C-20.093,34.726,-24.418,66.263,-19.165,67.749C-13.913,69.235,-1.075,40.107,9.51,2.69C20.094,-34.726,24.418,-66.263,19.166,-67.749C13.914,-69.234,1.075,-40.108,-9.509,-2.691Z" /></g><g id="Group 20" transform="matrix(1,0,0,1,103.463,274.151)"><path fill="#1cb7a8" fill-opacity="1" d="M-3.798,-9.124C-19.064,-2.77,-29.738,6.465,-27.641,11.504C-25.544,16.544,-11.468,15.479,3.797,9.125C19.063,2.771,29.738,-6.465,27.64,-11.504C25.543,-16.544,11.468,-15.478,-3.798,-9.124Z" /></g><g id="Group 19" transform="matrix(1,0,0,1,112.937,299.827)"><path fill="#1cb7a8" fill-opacity="1" d="M-2.288,-9.615C-18.373,-5.786,-30.39,1.624,-29.126,6.933C-27.862,12.243,-13.797,13.443,2.288,9.614C18.374,5.785,30.389,-1.623,29.126,-6.933C27.862,-12.243,13.797,-13.444,-2.288,-9.615Z" /></g><g id="Group 18" transform="matrix(1,0,0,1,108.015,322.064)"><path fill="#1cb7a8" fill-opacity="1" d="M-0.291,-9.879C-16.819,-9.39,-30.088,-4.571,-29.927,0.884C-29.766,6.34,-16.235,10.367,0.293,9.879C16.821,9.391,30.088,4.572,29.927,-0.884C29.766,-6.34,16.237,-10.367,-0.291,-9.879Z" /></g><g id="Group 17" transform="matrix(1,0,0,1,101.573,344.133)"><path fill="#1cb7a8" fill-opacity="1" d="M-0.291,-9.879C-16.819,-9.391,-30.088,-4.572,-29.927,0.884C-29.766,6.34,-16.235,10.367,0.293,9.879C16.821,9.39,30.088,4.572,29.927,-0.884C29.766,-6.34,16.237,-10.367,-0.291,-9.879Z" /></g><g id="Group 16" transform="matrix(1,0,0,1,92.564,367.148)"><path fill="#1cb7a8" fill-opacity="1" d="M2.544,-9.55C-13.434,-13.807,-27.525,-12.982,-28.931,-7.707C-30.336,-2.433,-18.522,5.293,-2.544,9.55C13.433,13.807,27.525,12.982,28.93,7.707C30.336,2.433,18.522,-5.293,2.544,-9.55Z" /></g><g id="Group 15" transform="matrix(1,0,0,1,83.958,389.286)"><path fill="#1cb7a8" fill-opacity="1" d="M3.106,-9.383C-12.592,-14.579,-26.708,-14.59,-28.423,-9.408C-30.139,-4.227,-18.804,4.186,-3.105,9.382C12.592,14.578,26.709,14.589,28.424,9.407C30.139,4.225,18.804,-4.188,3.106,-9.383Z" /></g><g id="Group 14" transform="matrix(1,0,0,1,75.716,407.17)"><path fill="#1cb7a8" fill-opacity="1" d="M5.544,-8.182C-8.145,-17.456,-21.725,-21.312,-24.786,-16.793C-27.848,-12.275,-19.233,-1.093,-5.544,8.182C8.145,17.457,21.724,21.312,24.786,16.794C27.848,12.275,19.233,1.092,5.544,-8.182Z" /></g><g id="Group 13" transform="matrix(1,0,0,1,60.753,419.985)"><path fill="#1cb7a8" fill-opacity="1" d="M5.544,-8.182C-8.144,-17.456,-21.724,-21.312,-24.786,-16.793C-27.848,-12.275,-19.233,-1.092,-5.543,8.182C8.146,17.457,21.725,21.312,24.786,16.794C27.848,12.275,19.233,1.093,5.544,-8.182Z" /></g><g id="Group 12" transform="matrix(1,0,0,1,82.549,274.767)"><path fill="#1dc0b4" fill-opacity="1" d="M-5.735,-8.049C-19.202,1.545,-27.551,12.927,-24.384,17.372C-21.217,21.818,-7.733,17.644,5.734,8.049C19.202,-1.546,27.551,-12.927,24.383,-17.373C21.216,-21.818,7.732,-17.644,-5.735,-8.049Z" /></g><g id="Group 11" transform="matrix(1,0,0,1,76.543,258.493)"><path fill="#1dc0b4" fill-opacity="1" d="M-7.598,-6.319C-18.17,6.395,-23.34,19.531,-19.142,23.02C-14.946,26.51,-2.974,19.033,7.599,6.319C18.171,-6.395,23.339,-19.531,19.142,-23.021C14.945,-26.51,2.974,-19.033,-7.598,-6.319Z" /></g><g id="Group 10" transform="matrix(1,0,0,1,81.882,296.701)"><path fill="#1dc0b4" fill-opacity="1" d="M-3.797,-9.125C-19.063,-2.771,-29.738,6.466,-27.641,11.505C-25.543,16.544,-11.468,15.478,3.798,9.124C19.064,2.77,29.739,-6.466,27.641,-11.505C25.544,-16.544,11.469,-15.479,-3.797,-9.125Z" /></g><g id="Group 9" transform="matrix(1,0,0,1,80.593,316.373)"><path fill="#1dc0b4" fill-opacity="1" d="M-1.32,-9.795C-17.707,-7.587,-30.401,-1.41,-29.671,3.999C-28.942,9.409,-15.067,12.004,1.321,9.795C17.707,7.586,30.401,1.411,29.672,-3.999C28.942,-9.408,15.067,-12.004,-1.32,-9.795Z" /></g><g id="Group 8" transform="matrix(1,0,0,1,75.112,333.341)"><path fill="#1dc0b4" fill-opacity="1" d="M-0.114,-9.883C-16.648,-9.692,-30.001,-5.113,-29.938,0.345C-29.875,5.803,-16.42,10.073,0.114,9.882C16.648,9.692,30.001,5.113,29.938,-0.345C29.875,-5.803,16.42,-10.073,-0.114,-9.883Z" /></g><g id="Group 7" transform="matrix(1,0,0,1,75.47,354.559)"><path fill="#1dc0b4" fill-opacity="1" d="M-0.114,-9.883C-16.648,-9.693,-30.001,-5.113,-29.938,0.345C-29.875,5.802,-16.42,10.073,0.114,9.882C16.648,9.692,30.001,5.112,29.937,-0.345C29.875,-5.803,16.421,-10.073,-0.114,-9.883Z" /></g><g id="Group 6" transform="matrix(1,0,0,1,70.093,373.152)"><path fill="#1dc0b4" fill-opacity="1" d="M3.155,-9.367C-12.516,-14.643,-26.633,-14.728,-28.374,-9.555C-30.116,-4.382,-18.825,4.091,-3.155,9.367C12.516,14.643,26.632,14.728,28.374,9.555C30.115,4.383,18.825,-4.09,3.155,-9.367Z" /></g><g id="Group 5" transform="matrix(1,0,0,1,63.213,390.959)"><path fill="#1dc0b4" fill-opacity="1" d="M2.386,-8.011C-11.016,-12.002,-22.949,-11.652,-24.266,-7.228C-25.584,-2.804,-15.788,4.018,-2.386,8.01C11.015,12.002,22.948,11.651,24.266,7.227C25.584,2.802,15.788,-4.019,2.386,-8.011Z" /></g><g id="Group 4" transform="matrix(1,0,0,1,54.829,402.432)"><path fill="#1dc0b4" fill-opacity="1" d="M5.344,-6.426C-5.408,-15.366,-16.517,-19.738,-19.468,-16.188C-22.419,-12.639,-16.096,-2.514,-5.345,6.427C5.407,15.367,16.515,19.738,19.467,16.188C22.419,12.639,16.096,2.514,5.344,-6.426Z" /></g><g id="Group 3" transform="matrix(1,0,0,1,48.358,415.205)"><path fill="#1dc0b4" fill-opacity="1" d="M5.344,-6.426C-5.408,-15.367,-16.516,-19.738,-19.468,-16.189C-22.419,-12.639,-16.096,-2.514,-5.345,6.427C5.407,15.367,16.516,19.738,19.467,16.188C22.419,12.639,16.096,2.514,5.344,-6.426Z" /></g><g id="Group 2" transform="matrix(1,0,0,1,39.409,426.529)"><path fill="#1dc0b4" fill-opacity="1" d="M5.344,-6.426C-5.408,-15.366,-16.516,-19.738,-19.468,-16.189C-22.419,-12.639,-16.095,-2.514,-5.344,6.427C5.408,15.367,16.517,19.738,19.468,16.189C22.419,12.639,16.095,2.514,5.344,-6.426Z" /></g><g id="Group 1" transform="matrix(1,0,0,1,40.572,333.831)"><path fill="#20cebd" fill-opacity="1" d="M-13.659,113.156C-9.257,107.469,-24.034,109.264,-24.034,109.264C-24.034,109.264,5.172,87.111,3.517,79.982C1.786,72.529,-9.833,76.793,-9.833,76.793C-9.833,76.793,16.433,46.812,14.852,42.526C13.271,38.241,-0.114,41.556,-0.114,41.556C-0.114,41.556,26.153,11.576,24.87,1.499C23.586,-8.577,10.806,-1.426,10.806,-1.426C10.806,-1.426,39.666,-33.176,33.986,-37.572C28.306,-41.969,17.294,-32.224,17.294,-32.224C17.294,-32.224,32.923,-55.845,36.241,-67.113C39.559,-78.382,15.62,-69.748,15.62,-69.748C24.114,-75.317,29.736,-110.664,26.913,-116.115C24.09,-121.565,1.055,-75.249,1.055,-75.249C-1.161,-71.946,-2.672,-68.242,-3.459,-64.343L-39.666,121.565C-39.666,121.565,-18.061,118.843,-13.659,113.156Z" /></g></g></g></g></g></g></g></g></g></g><g id="Body Outlines"><g transform="translate(917.25,643.5)"><animateTransform repeatCount="indefinite" type="translate" attributeName="transform" dur="1s" begin="0s" calcMode="spline" values="917.25 643.5; 917.25 600.5; 917.25 643.5" keyTimes="0; 0.5; 1" keySplines="0.333 0 0.667 1; 0.333 0 0.667 1" fill="freeze" /><g transform="rotate(-7)"><animateTransform repeatCount="indefinite" type="rotate" attributeName="transform" dur="1s" begin="0s" calcMode="spline" values="-7; 0; -7" keyTimes="0; 0.5; 1" keySplines="0.333 0 0.667 1; 0.333 0 0.667 1" fill="freeze" /><g transform="scale(1,1) translate(-154.25,-89.5)"><g id="Group 6" transform="matrix(1,0,0,1,174.335,91.495)"><path fill="#d63030" fill-opacity="1" d="M-154.029,-53.833C-154.029,-53.833,-145.901,-28.32,-134.595,-15.946C-126.414,-6.992,-100.083,31.634,-52.728,56.816C-34.646,66.433,-14.506,74.21,7.082,77.842C85.205,90.985,154.455,67.896,154.455,67.896C154.455,67.896,157.096,-20.72,21.21,-32.781L-37.161,-51.557L-94.148,-69.888C-94.148,-69.888,-138.886,-90.985,-157.096,-71.125C-156.602,-70.979,-152.065,-69.552,-150.477,-65.055C-149.106,-61.17,-150.507,-56.621,-154.029,-53.833Z" /></g><g id="Group 5" transform="matrix(1,0,0,1,263.488,109.052)"><path fill="#56d9b4" fill-opacity="1" d="M65.302,50.339C65.302,50.339,67.944,-38.277,-67.943,-50.339C-67.943,-50.339,-40.929,-37.898,-19.003,5.575C3.525,50.241,65.302,50.339,65.302,50.339Z" /></g><g id="Group 4" transform="matrix(1,0,0,1,87.876,80.162)"><path fill="#56d9b4" fill-opacity="1" d="M49.299,-40.225L-7.689,-58.555C-7.689,-58.555,-52.427,-79.653,-70.637,-59.792C-70.142,-59.647,-65.606,-58.219,-64.018,-53.722C-62.647,-49.837,-64.048,-45.288,-67.57,-42.5C-67.57,-42.5,-59.441,-16.988,-48.136,-4.614C-39.954,4.34,-13.624,42.965,33.731,68.148C56.218,79.652,70.637,54.47,37.977,9.09C32.075,0.889,5.289,-26.944,30.705,-30.528C44.037,-32.407,49.299,-40.225,49.299,-40.225Z" /></g><g id="Group 3" transform="matrix(1,0,0,1,12.761,29.018)"><path fill="#808080" fill-opacity="1" d="M-11.82,-0.023L7.544,8.646C11.068,5.856,12.469,1.306,11.096,-2.579C9.509,-7.075,4.97,-8.501,4.475,-8.646C4.475,-8.646,-12.47,-5.418,-11.82,-0.023Z" /></g><g id="Group 2" transform="matrix(1,0,0,1,68.495,34.552)"><path fill="#000000" fill-opacity="1" d="M5.458,0.744C5.047,3.759,2.27,5.869,-0.744,5.457C-3.758,5.046,-5.868,2.269,-5.457,-0.744C-5.045,-3.758,-2.269,-5.868,0.745,-5.457C3.758,-5.045,5.869,-2.27,5.458,0.744Z" /></g><g id="Group 1" transform="matrix(1,0,0,1,76.26,92.986)"><path fill="#1d939f" fill-opacity="1" d="M-55.953,-55.324C-55.953,-55.324,-47.826,-29.811,-36.52,-17.437C-28.339,-8.483,-2.008,30.142,45.347,55.324C45.347,55.324,55.953,47.063,36.566,30.655C17.178,14.246,-32.587,-31.972,-32.587,-31.972L-55.953,-55.324Z" /></g></g></g></g></g><g id="Body Outlines"><g transform="translate(917.25,643.5)"><animateTransform repeatCount="indefinite" type="translate" attributeName="transform" dur="1s" begin="0s" calcMode="spline" values="917.25 643.5; 917.25 600.5; 917.25 643.5" keyTimes="0; 0.5; 1" keySplines="0.333 0 0.667 1; 0.333 0 0.667 1" fill="freeze" /><g transform="rotate(-7)"><animateTransform repeatCount="indefinite" type="rotate" attributeName="transform" dur="1s" begin="0s" calcMode="spline" values="-7; 0; -7" keyTimes="0; 0.5; 1" keySplines="0.333 0 0.667 1; 0.333 0 0.667 1" fill="freeze" /><g transform="scale(1,1) translate(-154.25,-89.5)"><g id="wings Outlines"><g transform="translate(190,54.5)"><g transform="rotate(0)"><animateTransform repeatCount="indefinite" type="rotate" attributeName="transform" dur="0.167s" begin="0s" calcMode="spline" values="0; 25; 0" keyTimes="0; 0.5; 1" keySplines="0 0 1 1; 0 0 1 1" fill="freeze" /><g transform="scale(1,1)"><animateTransform repeatCount="indefinite" type="scale" attributeName="transform" dur="0.167s" begin="0s" calcMode="spline" values="1 1; 1 -0.858; 1 1" keyTimes="0; 0.5; 1" keySplines="0 0 1 1; 0 0 1 1" fill="freeze" /><g transform="translate(-72,-441.5)"><g id="Group 25" transform="matrix(1,0,0,1,133.242,229.616)"><path fill="#1c1c1c" fill-opacity="1" d="M-13.769,115.986C-12.522,116.413,-12.648,116.949,-13.942,116.814L-13.769,115.986ZM-77.952,217.942C-75.415,218.541,-67.623,219.353,-67.623,219.353C-58.109,221.607,-47.041,223.549,-35.131,224.917C1.313,229.096,31.561,226.344,32.43,218.768C32.737,216.094,29.286,213.178,23.167,210.34C38.55,211.001,48.983,209.093,49.964,204.596C50.918,200.227,42.779,194.361,29.237,188.704C49.082,190.863,63.072,189.771,64.065,185.224C65.023,180.831,53.583,174.315,35.73,168.193C54.508,170.065,67.621,168.91,68.58,164.517C69.289,161.269,63.204,156.858,52.789,152.306C67.993,153.3,78.222,151.937,79.064,148.077C79.839,144.525,72.488,139.584,60.23,134.587C78.294,137.174,90.406,136.73,91.575,132.667C92.558,129.251,85.632,123.886,73.487,117.858C90.998,119.005,103.105,117.105,104.179,112.182C105.206,107.478,95.879,101.087,80.744,95.073C100.519,96.055,114.296,94.159,115.021,89.586C115.785,84.779,101.916,78.325,81.142,72.971C111.206,71.119,131.962,67.021,131.98,62.186C132.001,56.926,107.464,52.352,73.081,50.517C105.225,44.802,127.492,37.729,126.882,32.681C126.285,27.73,103.854,26.122,72.259,28.036C106.696,18.822,130.802,8.857,129.649,3.604C128.429,-1.951,99.37,-0.458,61.181,6.555C99.112,-9.601,126.223,-25.607,124.049,-31.112C122.002,-36.3,94.582,-30.527,59.007,-18.033C94.632,-43.138,119.559,-66.138,116.114,-71.229C113.085,-75.706,89.035,-64.963,58.418,-46.171C85.797,-78.793,103.493,-106.535,98.946,-110.528C94.723,-114.235,72.666,-96.262,46.472,-68.558C47.083,-69.685,47.693,-70.785,48.303,-71.928C71.655,-115.61,85.776,-153.593,79.843,-156.764C74.889,-159.413,57.504,-136.898,38.307,-103.967C38.819,-107.897,39.324,-112.147,39.827,-116.764C45.117,-165.358,9.544,-229.096,11.853,-126.771C13.805,-40.246,-32.506,9.395,-46.855,22.662C-49.776,25.363,-52.102,28.617,-53.77,32.229L-132.001,204.717C-132.001,204.717,-91.627,214.713,-77.952,217.942Z" /></g><g id="Group 24" transform="matrix(1,0,0,1,163.117,199.964)"><path fill="#303030" fill-opacity="1" d="M-7.366,-6.589C-33.292,22.393,-51.01,48.837,-46.941,52.476C-42.874,56.115,-18.559,35.571,7.366,6.59C33.291,-22.392,51.01,-48.837,46.942,-52.476C42.873,-56.115,18.559,-35.57,-7.366,-6.589Z" /></g><g id="Group 23" transform="matrix(1,0,0,1,158.567,226.804)"><path fill="#303030" fill-opacity="1" d="M-5.931,-7.906C-33.099,12.478,-52.47,32.542,-49.194,36.908C-45.918,41.275,-21.239,28.289,5.931,7.905C33.1,-12.479,52.47,-32.543,49.195,-36.909C45.919,-41.275,21.239,-28.29,-5.931,-7.906Z" /></g><g id="Group 22" transform="matrix(1,0,0,1,150.047,254.865)"><path fill="#1cb7a8" fill-opacity="1" d="M-3.716,-9.158C-19.037,-2.939,-29.795,6.203,-27.741,11.261C-25.689,16.319,-11.604,15.377,3.717,9.158C19.038,2.939,29.794,-6.203,27.741,-11.261C25.688,-16.318,11.604,-15.377,-3.716,-9.158Z" /></g><g id="Group 21" transform="matrix(1,0,0,1,151.804,189.96)"><path fill="#303030" fill-opacity="1" d="M-8.63,-4.817C-27.583,29.136,-39.084,58.817,-34.318,61.478C-29.552,64.138,-10.323,38.77,8.63,4.817C27.583,-29.136,39.084,-58.817,34.318,-61.478C29.553,-64.138,10.324,-38.77,-8.63,-4.817Z" /></g><g id="Group 20" transform="matrix(1,0,0,1,142.943,281.73)"><path fill="#1cb7a8" fill-opacity="1" d="M-1.583,-9.756C-17.905,-7.106,-30.427,-0.589,-29.552,4.799C-28.677,10.186,-14.736,12.406,1.585,9.756C17.906,7.106,30.427,0.589,29.553,-4.798C28.678,-10.187,14.738,-12.406,-1.583,-9.756Z" /></g><g id="Group 19" transform="matrix(1,0,0,1,146.221,308.902)"><path fill="#1cb7a8" fill-opacity="1" d="M-0.002,-9.884C-16.537,-9.88,-29.94,-5.452,-29.939,0.006C-29.938,5.465,-16.532,9.887,0.003,9.883C16.538,9.879,29.941,5.451,29.94,-0.007C29.938,-5.466,16.533,-9.888,-0.002,-9.884Z" /></g><g id="Group 18" transform="matrix(1,0,0,1,136.289,329.396)"><path fill="#1cb7a8" fill-opacity="1" d="M2.001,-9.679C-14.191,-13.027,-28.214,-11.408,-29.319,-6.063C-30.425,-0.718,-18.194,6.33,-2.001,9.679C14.191,13.027,28.214,11.407,29.319,6.063C30.425,0.717,18.193,-6.33,2.001,-9.679Z" /></g><g id="Group 17" transform="matrix(1,0,0,1,124.916,349.376)"><path fill="#1cb7a8" fill-opacity="1" d="M2.002,-9.678C-14.19,-13.027,-28.214,-11.408,-29.319,-6.062C-30.425,-0.718,-18.194,6.33,-2.001,9.678C14.191,13.027,28.214,11.408,29.319,6.063C30.425,0.718,18.194,-6.33,2.002,-9.678Z" /></g><g id="Group 16" transform="matrix(1,0,0,1,110.826,369.684)"><path fill="#1cb7a8" fill-opacity="1" d="M4.684,-8.703C-9.876,-16.54,-23.776,-18.997,-26.363,-14.191C-28.95,-9.385,-19.245,0.865,-4.685,8.703C9.874,16.541,23.775,18.997,26.363,14.19C28.95,9.384,19.244,-0.866,4.684,-8.703Z" /></g><g id="Group 15" transform="matrix(1,0,0,1,97.333,389.23)"><path fill="#1cb7a8" fill-opacity="1" d="M5.192,-8.41C-8.878,-17.097,-22.608,-20.373,-25.476,-15.728C-28.343,-11.084,-19.262,-0.276,-5.192,8.41C8.879,17.096,22.609,20.373,25.476,15.729C28.343,11.084,19.262,0.276,5.192,-8.41Z" /></g><g id="Group 14" transform="matrix(1,0,0,1,85.177,404.723)"><path fill="#1cb7a8" fill-opacity="1" d="M7.286,-6.678C-3.886,-18.868,-16.205,-25.76,-20.229,-22.073C-24.253,-18.384,-18.458,-5.513,-7.286,6.677C3.887,18.867,16.205,25.76,20.229,22.071C24.253,18.384,18.458,5.511,7.286,-6.678Z" /></g><g id="Group 13" transform="matrix(1,0,0,1,67.656,413.728)"><path fill="#1cb7a8" fill-opacity="1" d="M7.286,-6.678C-3.886,-18.867,-16.205,-25.76,-20.229,-22.072C-24.253,-18.384,-18.459,-5.512,-7.286,6.677C3.886,18.868,16.206,25.76,20.229,22.072C24.254,18.384,18.459,5.512,7.286,-6.678Z" /></g><g id="Group 12" transform="matrix(1,0,0,1,122.454,277.49)"><path fill="#1dc0b4" fill-opacity="1" d="M-3.716,-9.157C-19.037,-2.938,-29.795,6.203,-27.741,11.261C-25.689,16.318,-11.604,15.377,3.717,9.157C19.038,2.939,29.794,-6.203,27.741,-11.261C25.688,-16.318,11.604,-15.376,-3.716,-9.157Z" /></g><g id="Group 11" transform="matrix(1,0,0,1,120.376,260.27)"><path fill="#1dc0b4" fill-opacity="1" d="M-5.931,-7.906C-19.158,2.017,-27.224,13.601,-23.949,17.967C-20.673,22.333,-7.295,17.828,5.931,7.905C19.158,-2.018,27.224,-13.602,23.949,-17.969C20.673,-22.334,7.296,-17.83,-5.931,-7.906Z" /></g><g id="Group 10" transform="matrix(1,0,0,1,116.731,298.676)"><path fill="#1dc0b4" fill-opacity="1" d="M-1.583,-9.756C-17.905,-7.106,-30.428,-0.589,-29.553,4.798C-28.678,10.186,-14.737,12.406,1.584,9.756C17.905,7.106,30.428,0.589,29.553,-4.798C28.679,-10.186,14.738,-12.406,-1.583,-9.756Z" /></g><g id="Group 9" transform="matrix(1,0,0,1,110.927,317.516)"><path fill="#1dc0b4" fill-opacity="1" d="M0.981,-9.835C-15.472,-11.477,-29.25,-8.404,-29.792,-2.973C-30.334,2.458,-17.435,8.192,-0.982,9.834C15.472,11.477,29.25,8.404,29.792,2.973C30.334,-2.459,17.435,-8.193,0.981,-9.835Z" /></g><g id="Group 8" transform="matrix(1,0,0,1,101.669,332.756)"><path fill="#1dc0b4" fill-opacity="1" d="M2.176,-9.641C-13.954,-13.28,-28.004,-11.914,-29.205,-6.59C-30.407,-1.266,-18.305,6.001,-2.176,9.641C13.954,13.28,28.004,11.915,29.205,6.59C30.406,1.266,18.306,-6.001,2.176,-9.641Z" /></g><g id="Group 7" transform="matrix(1,0,0,1,97.108,353.481)"><path fill="#1dc0b4" fill-opacity="1" d="M2.176,-9.641C-13.954,-13.281,-28.004,-11.915,-29.205,-6.59C-30.407,-1.266,-18.304,6.001,-2.175,9.64C13.955,13.28,28.005,11.915,29.206,6.59C30.407,1.266,18.306,-6.001,2.176,-9.641Z" /></g><g id="Group 6" transform="matrix(1,0,0,1,87.576,370.326)"><path fill="#1dc0b4" fill-opacity="1" d="M5.236,-8.383C-8.789,-17.142,-22.503,-20.489,-25.394,-15.86C-28.286,-11.23,-19.26,-0.376,-5.235,8.383C8.79,17.141,22.504,20.489,25.394,15.859C28.286,11.229,19.26,0.376,5.236,-8.383Z" /></g><g id="Group 5" transform="matrix(1,0,0,1,76.763,386.059)"><path fill="#1dc0b4" fill-opacity="1" d="M4.174,-7.241C-7.941,-14.225,-19.631,-16.644,-21.935,-12.645C-24.241,-8.646,-16.289,0.257,-4.174,7.241C7.941,14.225,19.631,16.644,21.936,12.645C24.241,8.646,16.289,-0.258,4.174,-7.241Z" /></g><g id="Group 4" transform="matrix(1,0,0,1,65.952,395.281)"><path fill="#1dc0b4" fill-opacity="1" d="M6.686,-5.016C-1.706,-16.202,-11.503,-23.023,-15.195,-20.253C-18.888,-17.483,-15.077,-6.169,-6.685,5.016C1.707,16.202,11.503,23.023,15.196,20.253C18.888,17.483,15.079,6.17,6.686,-5.016Z" /></g><g id="Group 3" transform="matrix(1,0,0,1,56.703,406.209)"><path fill="#1dc0b4" fill-opacity="1" d="M6.685,-5.016C-1.707,-16.201,-11.503,-23.023,-15.195,-20.252C-18.887,-17.483,-15.078,-6.169,-6.686,5.016C1.706,16.202,11.502,23.023,15.195,20.253C18.887,17.483,15.077,6.17,6.685,-5.016Z" /></g><g id="Group 2" transform="matrix(1,0,0,1,45.377,415.157)"><path fill="#1dc0b4" fill-opacity="1" d="M6.686,-5.016C-1.706,-16.201,-11.503,-23.023,-15.195,-20.252C-18.888,-17.483,-15.077,-6.169,-6.685,5.016C1.707,16.202,11.503,23.023,15.196,20.254C18.888,17.483,15.078,6.17,6.686,-5.016Z" /></g><g id="Group 1" transform="matrix(1,0,0,1,62.906,324.616)"><path fill="#20cebd" fill-opacity="1" d="M-34.418,107.553C-28.82,103.037,-43.611,101.367,-43.611,101.367C-43.611,101.367,-10.073,86.57,-10.034,79.252C-9.994,71.601,-22.284,73.062,-22.284,73.062C-22.284,73.062,10.206,49.971,9.658,45.435C9.111,40.901,-4.676,41.029,-4.676,41.029C-4.676,41.029,27.813,17.938,28.896,7.838C29.978,-2.262,15.89,1.739,15.89,1.739C15.89,1.739,51.312,-22.473,46.803,-28.064C42.294,-33.655,29.327,-26.723,29.327,-26.723C29.327,-26.723,49.997,-46.088,55.832,-56.283C61.665,-66.478,36.378,-63.616,36.378,-63.616C45.931,-67.07,59.578,-100.156,58.091,-106.112C56.606,-112.068,23.482,-72.337,23.482,-72.337C20.561,-69.636,18.235,-66.383,16.566,-62.771L-61.665,109.717C-61.665,109.717,-40.017,112.068,-34.418,107.553Z" /></g></g></g></g></g></g></g></g></g></g></svg>