<?xml version="1.0" encoding="utf-8"?><svg fill="none" viewBox="0 0 1600 1600" xmlns="http://www.w3.org/2000/svg"><defs /><g id="NULL NULL marmin"><g transform="translate(740,830)"><g transform="rotate(-28)"><animateTransform repeatCount="indefinite" type="rotate" attributeName="transform" dur="6.333s" begin="0s" calcMode="spline" values="-28; 0; -28" keyTimes="0; 0.474; 1" keySplines="0.333 0 0.667 1; 0.333 0 0.667 1" fill="freeze" /><g transform="scale(1,1) translate(-50,-50)"><g transform="matrix(2.698,0.476,-0.476,2.698,-61.129,-108.708)" id="NULL marmin"><g id="marmin"><g transform="translate(50,50)"><animateTransform repeatCount="indefinite" type="translate" attributeName="transform" dur="6.367s" begin="0s" calcMode="spline" values="50 50; 50 52.2; 50 -33.8; 117 -33.8; 112.143 66.421; 50 61; 50 50" keyTimes="0; 0.174; 0.303; 0.456; 0.672; 0.826; 1" keySplines="0.809 0 0.667 1; 0.333 0 0.667 1; 0.167 0 0.667 1; 0.167 0 0.667 1; 0.167 0 0.667 1; 0.167 0 0.667 1" fill="freeze" /><g transform="rotate(0)"><animateTransform repeatCount="indefinite" type="rotate" attributeName="transform" dur="6.367s" begin="0s" calcMode="spline" values="0; 2; -6; 2; 0" keyTimes="0; 0.19; 0.33; 0.899; 1" keySplines="0.809 0 0.667 1; 0.333 0 0.667 1; 0.167 0 0.667 1; 0.809 0 0.667 1" fill="freeze" /><g transform="scale(1,1) translate(-597.506,-452.216)"><g id="poch"><g transform="translate(511.763,466.761)"><g transform="rotate(5)"><animateTransform repeatCount="indefinite" type="rotate" attributeName="transform" dur="6.367s" begin="0s" calcMode="spline" values="5; 10; 0; 10; 0; 10; 0; 10; 0; 10; 0; 10; 0; 10; 0; 10; 0; 10; 0; 10; 0; 10; 0; 10; 0; 10; 0; 10; 0; 10; 0; 10; 0; 10; 0; 10; 0; 10; 5" keyTimes="0; 0.073; 0.098; 0.122; 0.146; 0.171; 0.195; 0.22; 0.244; 0.268; 0.293; 0.317; 0.341; 0.366; 0.39; 0.415; 0.439; 0.463; 0.488; 0.512; 0.537; 0.561; 0.585; 0.61; 0.634; 0.659; 0.683; 0.707; 0.732; 0.756; 0.78; 0.805; 0.829; 0.854; 0.878; 0.902; 0.927; 0.966; 1" keySplines="0.333 0 0.667 1; 0.333 0 0.667 1; 0.333 0 0.667 1; 0.333 0 0.667 1; 0.333 0 0.667 1; 0.333 0 0.667 1; 0.333 0 0.667 1; 0.333 0 0.667 1; 0.333 0 0.667 1; 0.333 0 0.667 1; 0.333 0 0.667 1; 0.333 0 0.667 1; 0.333 0 0.667 1; 0.333 0 0.667 1; 0.333 0 0.667 1; 0.333 0 0.667 1; 0.333 0 0.667 1; 0.333 0 0.667 1; 0.333 0 0.667 1; 0.333 0 0.667 1; 0.333 0 0.667 1; 0.333 0 0.667 1; 0.333 0 0.667 1; 0.333 0 0.667 1; 0.333 0 0.667 1; 0.333 0 0.667 1; 0.333 0 0.667 1; 0.333 0 0.667 1; 0.333 0 0.667 1; 0.333 0 0.667 1; 0.333 0 0.667 1; 0.333 0 0.667 1; 0.333 0 0.667 1; 0.333 0 0.667 1; 0.333 0 0.667 1; 0.333 0 0.667 1; 0.333 0 0.667 1; 0.333 0 0.833 1" fill="freeze" /><g transform="scale(1,1) translate(-511.763,-466.761)"><g id="Group 2" transform="matrix(1,0,0,1,511.763,466.761)"><path stroke-linejoin="round" stroke-linecap="round" stroke-width="2" stroke-opacity="1" stroke="#373d3b" fill="#373d3b" fill-opacity="1" d="M9.768,6.001C6.454,11.396,-0.606,13.082,-6.001,9.768C-11.396,6.454,-13.082,-0.606,-9.768,-6.001C-6.454,-11.396,0.606,-13.082,6.001,-9.768C11.396,-6.454,13.082,0.606,9.768,6.001Z" /></g><g id="Group 1" transform="matrix(1,0,0,1,459.678,479.271)"><path stroke-linejoin="round" stroke-linecap="round" stroke-width="2" stroke-opacity="1" stroke="#a40000" fill="#a40000" fill-opacity="1" d="M47.323,-22.939C47.323,-22.939,38.916,-15.64,0,-7.177C-28.509,-0.977,-55.166,-1.492,-55.166,-1.492C-55.166,-1.492,-52.493,2.258,-46.453,6.731C-41.833,10.152,-37.797,11.69,-37.797,11.69C-37.797,11.69,-40.967,14.497,-42.262,17.238C-43.84,20.576,-42.895,22.906,-42.895,22.906C-42.895,22.906,-21.1,23.827,11.009,15.934C36.533,9.66,55.166,-1.464,55.166,-1.464L47.323,-22.939Z" /></g></g></g></g></g></g></g></g></g></g></g></g></g></g><g id="NULL NULL marmin"><g transform="translate(740,830)"><g transform="rotate(-28)"><animateTransform repeatCount="indefinite" type="rotate" attributeName="transform" dur="6.333s" begin="0s" calcMode="spline" values="-28; 0; -28" keyTimes="0; 0.474; 1" keySplines="0.333 0 0.667 1; 0.333 0 0.667 1" fill="freeze" /><g transform="scale(1,1) translate(-50,-50)"><g transform="matrix(2.698,0.476,-0.476,2.698,-61.129,-108.708)" id="NULL marmin"><g id="marmin"><g transform="translate(50,50)"><animateTransform repeatCount="indefinite" type="translate" attributeName="transform" dur="6.367s" begin="0s" calcMode="spline" values="50 50; 50 52.2; 50 -33.8; 117 -33.8; 112.143 66.421; 50 61; 50 50" keyTimes="0; 0.174; 0.303; 0.456; 0.672; 0.826; 1" keySplines="0.809 0 0.667 1; 0.333 0 0.667 1; 0.167 0 0.667 1; 0.167 0 0.667 1; 0.167 0 0.667 1; 0.167 0 0.667 1" fill="freeze" /><g transform="rotate(0)"><animateTransform repeatCount="indefinite" type="rotate" attributeName="transform" dur="6.367s" begin="0s" calcMode="spline" values="0; 2; -6; 2; 0" keyTimes="0; 0.19; 0.33; 0.899; 1" keySplines="0.809 0 0.667 1; 0.333 0 0.667 1; 0.167 0 0.667 1; 0.809 0 0.667 1" fill="freeze" /><g transform="scale(1,1) translate(-597.506,-452.216)"><g id="aj tev"><g transform="translate(685.773,420.777)"><g transform="rotate(-5)"><animateTransform repeatCount="indefinite" type="rotate" attributeName="transform" dur="6.367s" begin="0s" calcMode="spline" values="-5; 40; -5; 40; -5; 40; -5; 40; -5; 40; -5; 40; -5; 40; -5; 40; -5; 40; -5; 40; -5; 40; -5; 40; -5; 40; -5; 40; -5; 40; -5; 40; -5; 40; -5; 40; 0" keyTimes="0; 0.027; 0.055; 0.082; 0.109; 0.137; 0.164; 0.191; 0.219; 0.246; 0.273; 0.301; 0.328; 0.355; 0.383; 0.41; 0.437; 0.464; 0.492; 0.519; 0.546; 0.574; 0.601; 0.628; 0.656; 0.683; 0.71; 0.738; 0.765; 0.792; 0.82; 0.847; 0.874; 0.902; 0.929; 0.956; 1" keySplines="0.333 0 0.667 1; 0.333 0 0.667 1; 0.333 0 0.667 1; 0.333 0 0.667 1; 0.333 0 0.667 1; 0.333 0 0.667 1; 0.333 0 0.667 1; 0.333 0 0.667 1; 0.333 0 0.667 1; 0.333 0 0.667 1; 0.333 0 0.667 1; 0.333 0 0.667 1; 0.333 0 0.667 1; 0.333 0 0.667 1; 0.333 0 0.667 1; 0.333 0 0.667 1; 0.333 0 0.667 1; 0.333 0 0.667 1; 0.333 0 0.667 1; 0.333 0 0.667 1; 0.333 0 0.667 1; 0.333 0 0.667 1; 0.333 0 0.667 1; 0.333 0 0.667 1; 0.333 0 0.667 1; 0.333 0 0.667 1; 0.333 0 0.667 1; 0.333 0 0.667 1; 0.333 0 0.667 1; 0.333 0 0.667 1; 0.333 0 0.667 1; 0.333 0 0.667 1; 0.333 0 0.667 1; 0.333 0 0.667 1; 0.333 0 0.667 1; 0.333 0 0.833 1" fill="freeze" /><g transform="scale(1,1) translate(-685.773,-420.777)"><g id="Group 6" transform="matrix(1,0,0,1,685.773,420.777)"><path fill="#ff3131" fill-opacity="1" d="M-5.503,21.823C6.55,24.862,18.784,17.556,21.823,5.503C24.862,-6.55,17.556,-18.784,5.503,-21.823C-6.55,-24.862,-18.784,-17.556,-21.823,-5.503C-24.862,6.55,-17.556,18.784,-5.503,21.823Z" /></g><g id="Group 5" transform="matrix(1,0,0,1,749.546,403.845)"><path stroke-linejoin="round" stroke-linecap="round" stroke-width="2" stroke-opacity="1" stroke="#a40000" fill="#ff3131" fill-opacity="1" d="M-68.404,38.956C-68.404,38.956,-30.767,59.248,9.253,44.168C63.884,23.583,68.404,-49.743,68.404,-49.743C68.404,-49.743,47.934,-30.597,-9.237,-17.426C-42.197,-9.833,-63.013,-5.566,-63.013,-5.566" /></g><g id="Group 4" transform="matrix(1,0,0,1,769.045,376.362)"><path stroke-linejoin="round" stroke-linecap="round" stroke-width="2" stroke-opacity="1" stroke="#a40000" fill="#a40000" fill-opacity="1" d="M-21.831,21.2C-6.406,23.423,9.235,21.862,24.501,19.165C29.833,18.223,35.187,17.101,40.372,15.484C47.825,-4.792,48.905,-22.26,48.905,-22.26C48.905,-22.26,28.436,-3.114,-28.735,10.057C-36.098,11.753,-42.851,13.282,-48.905,14.636C-40.046,17.522,-31.044,19.873,-21.831,21.2Z" /></g><g id="Group 3" transform="matrix(1,0,0,1,800.314,384.673)"><path stroke-linejoin="round" stroke-linecap="round" stroke-width="2" stroke-opacity="1" stroke="#a40000" d="M-13.686,7.687C-13.686,7.687,-4.384,4.462,4.985,-1.133C11.707,-5.147,13.686,-7.687,13.686,-7.687" /></g><g id="Group 2" transform="matrix(1,0,0,1,796.092,399.398)"><path stroke-linejoin="round" stroke-linecap="round" stroke-width="2" stroke-opacity="1" stroke="#a40000" d="M-13.347,7.563C-13.347,7.563,-4.716,5.168,4.653,-0.427C11.375,-4.441,13.347,-7.563,13.347,-7.563" /></g><g id="Group 1" transform="matrix(1,0,0,1,789.385,415.265)"><path stroke-linejoin="round" stroke-linecap="round" stroke-width="2" stroke-opacity="1" stroke="#a40000" d="M-13.164,7.543C-13.164,7.543,-4.916,5.644,4.453,0.049C11.175,-3.965,13.164,-7.543,13.164,-7.543" /></g></g></g></g></g></g></g></g></g></g></g></g></g></g><g id="NULL NULL marmin"><g transform="translate(740,830)"><g transform="rotate(-28)"><animateTransform repeatCount="indefinite" type="rotate" attributeName="transform" dur="6.333s" begin="0s" calcMode="spline" values="-28; 0; -28" keyTimes="0; 0.474; 1" keySplines="0.333 0 0.667 1; 0.333 0 0.667 1" fill="freeze" /><g transform="scale(1,1) translate(-50,-50)"><g transform="matrix(2.698,0.476,-0.476,2.698,-61.129,-108.708)" id="NULL marmin"><g id="marmin"><g transform="translate(50,50)"><animateTransform repeatCount="indefinite" type="translate" attributeName="transform" dur="6.367s" begin="0s" calcMode="spline" values="50 50; 50 52.2; 50 -33.8; 117 -33.8; 112.143 66.421; 50 61; 50 50" keyTimes="0; 0.174; 0.303; 0.456; 0.672; 0.826; 1" keySplines="0.809 0 0.667 1; 0.333 0 0.667 1; 0.167 0 0.667 1; 0.167 0 0.667 1; 0.167 0 0.667 1; 0.167 0 0.667 1" fill="freeze" /><g transform="rotate(0)"><animateTransform repeatCount="indefinite" type="rotate" attributeName="transform" dur="6.367s" begin="0s" calcMode="spline" values="0; 2; -6; 2; 0" keyTimes="0; 0.19; 0.33; 0.899; 1" keySplines="0.809 0 0.667 1; 0.333 0 0.667 1; 0.167 0 0.667 1; 0.809 0 0.667 1" fill="freeze" /><g transform="scale(1,1) translate(-597.506,-452.216)"><g id="glux"><g transform="translate(674.157,416.318)"><g transform="rotate(0)"><animateTransform repeatCount="indefinite" type="rotate" attributeName="transform" dur="6.367s" begin="0s" calcMode="spline" values="0; 2; -2; 2; 0" keyTimes="0; 0.19; 0.33; 0.899; 1" keySplines="0.809 0 0.667 1; 0.333 0 0.667 1; 0.167 0 0.667 1; 0.809 0 0.667 1" fill="freeze" /><g transform="scale(1,1) translate(-674.157,-416.318)"><g id="glux" transform="matrix(1,0,0,1,0,0)"><g id="Group 4" transform="matrix(1,0,0,1,659.766,424.795)"><path stroke-linejoin="round" stroke-linecap="round" stroke-width="2" stroke-opacity="1" stroke="#a40000" fill="#ff3131" fill-opacity="1" d="M55.063,33.828C36.38,64.238,-3.418,73.746,-33.828,55.063C-64.238,36.38,-73.746,-3.418,-55.063,-33.828C-36.38,-64.238,3.418,-73.746,33.828,-55.063C64.238,-36.38,73.746,3.418,55.063,33.828Z" /></g><g id="Group 3" transform="matrix(1,0,0,1,683.476,398.663)"><path stroke-linejoin="round" stroke-linecap="round" stroke-width="2" stroke-opacity="1" stroke="#a40000" fill="#ff3131" fill-opacity="1" d="M-59.889,-26.801C-59.889,-26.801,-41.461,-41.669,-16.852,-51.615C10.555,-62.692,59.889,-51.022,59.889,-0.578C59.889,2.698,55.966,7.524,54.666,10.447C50.804,19.133,46.363,28.682,43.073,35.509C38.778,44.422,33.882,55.455,33.882,55.455" /></g><g id="Group 2" transform="matrix(1,0,0,1,715.17,387.479)"><path fill="#a40000" fill-opacity="1" d="M2.148,1.32C1.419,2.506,-0.134,2.877,-1.32,2.148C-2.506,1.419,-2.877,-0.134,-2.148,-1.32C-1.419,-2.506,0.134,-2.877,1.32,-2.148C2.506,-1.419,2.877,0.134,2.148,1.32Z" /></g><g id="Group 1" transform="matrix(1,0,0,1,740.606,407.473)"><path fill="#a40000" fill-opacity="1" d="M1.255,-3.057L-12.574,-3.057L12.574,3.057L1.255,-3.057Z" /></g></g><g id="Isolation Mode 7" transform="matrix(1,0,0,1,0,0)"><g id="Group 2" transform="matrix(1,0,0,1,716.169,385.622)"><path d="" /></g><g id="Group 1" transform="matrix(1,0,0,1,740.606,407.473)"><path fill="#a40000" fill-opacity="1" d="M-1.112,3.057L-1.112,3.057L-1.112,3.057L12.574,3.057L0.593,-0.949L-12.574,-3.057L-1.112,3.057Z" /></g></g></g></g></g></g></g></g></g></g></g></g></g></g></g><g id="NULL NULL marmin"><g transform="translate(740,830)"><g transform="rotate(-28)"><animateTransform repeatCount="indefinite" type="rotate" attributeName="transform" dur="6.333s" begin="0s" calcMode="spline" values="-28; 0; -28" keyTimes="0; 0.474; 1" keySplines="0.333 0 0.667 1; 0.333 0 0.667 1" fill="freeze" /><g transform="scale(1,1) translate(-50,-50)"><g transform="matrix(2.698,0.476,-0.476,2.698,-61.129,-108.708)" id="NULL marmin"><g id="marmin"><g transform="translate(50,50)"><animateTransform repeatCount="indefinite" type="translate" attributeName="transform" dur="6.367s" begin="0s" calcMode="spline" values="50 50; 50 52.2; 50 -33.8; 117 -33.8; 112.143 66.421; 50 61; 50 50" keyTimes="0; 0.174; 0.303; 0.456; 0.672; 0.826; 1" keySplines="0.809 0 0.667 1; 0.333 0 0.667 1; 0.167 0 0.667 1; 0.167 0 0.667 1; 0.167 0 0.667 1; 0.167 0 0.667 1" fill="freeze" /><g transform="rotate(0)"><animateTransform repeatCount="indefinite" type="rotate" attributeName="transform" dur="6.367s" begin="0s" calcMode="spline" values="0; 2; -6; 2; 0" keyTimes="0; 0.19; 0.33; 0.899; 1" keySplines="0.809 0 0.667 1; 0.333 0 0.667 1; 0.167 0 0.667 1; 0.809 0 0.667 1" fill="freeze" /><g transform="scale(1,1) translate(-597.506,-452.216)"><g id="Group 3" transform="matrix(1,0,0,1,597.506,452.216)"><path stroke-linejoin="round" stroke-linecap="round" stroke-width="2" stroke-opacity="1" stroke="#a40000" fill="#ff3131" fill-opacity="1" d="M26.081,-80.354C26.081,-80.354,-49.315,-24.958,-75.771,-7.02C-84.896,-0.833,-117.253,13.72,-117.253,13.72C-117.253,13.72,-81.305,76.886,-10.141,80.181C83.34,84.509,117.253,6.036,117.253,6.036" /></g><g id="Group 2" transform="matrix(1,0,0,1,569.038,426.912)"><path stroke-linejoin="round" stroke-linecap="round" stroke-width="2" stroke-opacity="1" stroke="#a40000" fill="#a40000" fill-opacity="1" d="M31.682,-13.232C24.895,-16.952,17.76,-19.946,10.66,-23.016C-10.364,-7.761,-33.706,9.026,-46.54,17.765C-38.933,21.187,-31.249,22.62,-22.559,22.91C21.215,24.371,40.347,10.362,43.981,3.75C45.266,1.412,46.047,-1.169,46.54,-3.849C41.73,-7.269,36.762,-10.447,31.682,-13.232Z" /></g><g id="Group 1" transform="matrix(1,0,0,1,622.714,497.61)"><path stroke-linejoin="round" stroke-linecap="round" stroke-width="2" stroke-opacity="1" stroke="#a40000" fill="#a40000" fill-opacity="1" d="M8.578,-22.435C2.323,-21.218,-2.98,-19.559,-23.058,-13.543C-35.935,-9.685,-42.621,-6.028,-50.919,-1.715C-61,3.525,-67.124,1.889,-76.62,7.786C-81.312,10.7,-86.393,14.356,-89.859,18.979C-74.87,27.421,-56.695,33.799,-35.349,34.787C44.685,38.493,81.051,-18.488,89.859,-34.96C57.169,-31.106,48.506,-30.203,8.578,-22.435Z" /></g></g></g></g></g></g></g></g></g></g><g id="NULL NULL marmin"><g transform="translate(740,830)"><g transform="rotate(-28)"><animateTransform repeatCount="indefinite" type="rotate" attributeName="transform" dur="6.333s" begin="0s" calcMode="spline" values="-28; 0; -28" keyTimes="0; 0.474; 1" keySplines="0.333 0 0.667 1; 0.333 0 0.667 1" fill="freeze" /><g transform="scale(1,1) translate(-50,-50)"><g transform="matrix(2.698,0.476,-0.476,2.698,-61.129,-108.708)" opacity="0" id="NULL marmin" /></g></g></g></g><g opacity="0" id="NULL NULL marmin"><g transform="translate(740,830)"><g transform="rotate(-28)"><animateTransform repeatCount="indefinite" type="rotate" attributeName="transform" dur="6.333s" begin="0s" calcMode="spline" values="-28; 0; -28" keyTimes="0; 0.474; 1" keySplines="0.333 0 0.667 1; 0.333 0 0.667 1" fill="freeze" /><g transform="scale(1,1) translate(-50,-50)" /></g></g></g><g id="NULL NULL marmin"><g transform="translate(740,830)"><g transform="rotate(-28)"><animateTransform repeatCount="indefinite" type="rotate" attributeName="transform" dur="6.333s" begin="0s" calcMode="spline" values="-28; 0; -28" keyTimes="0; 0.474; 1" keySplines="0.333 0 0.667 1; 0.333 0 0.667 1" fill="freeze" /><g transform="scale(1,1) translate(-50,-50)"><g transform="matrix(2.698,0.476,-0.476,2.698,-61.129,-108.708)" id="NULL marmin"><g id="marmin"><g transform="translate(50,50)"><animateTransform repeatCount="indefinite" type="translate" attributeName="transform" dur="6.367s" begin="0s" calcMode="spline" values="50 50; 50 52.2; 50 -33.8; 117 -33.8; 112.143 66.421; 50 61; 50 50" keyTimes="0; 0.174; 0.303; 0.456; 0.672; 0.826; 1" keySplines="0.809 0 0.667 1; 0.333 0 0.667 1; 0.167 0 0.667 1; 0.167 0 0.667 1; 0.167 0 0.667 1; 0.167 0 0.667 1" fill="freeze" /><g transform="rotate(0)"><animateTransform repeatCount="indefinite" type="rotate" attributeName="transform" dur="6.367s" begin="0s" calcMode="spline" values="0; 2; -6; 2; 0" keyTimes="0; 0.19; 0.33; 0.899; 1" keySplines="0.809 0 0.667 1; 0.333 0 0.667 1; 0.167 0 0.667 1; 0.809 0 0.667 1" fill="freeze" /><g transform="scale(1,1) translate(-597.506,-452.216)"><g id="dzax tev"><g transform="translate(623.026,413.024)"><g transform="rotate(5)"><animateTransform repeatCount="indefinite" type="rotate" attributeName="transform" dur="6.333s" begin="0s" calcMode="spline" values="5; -40; 5; -40; 5; -40; 5; -40; 5; -40; 5; -40; 5; -40; 5; -40; 5; -40; 5; -40; 5; -40; 5; -40; 5; -40; 5; -40; 5; -40; 5; -40; 5; -40; 5; -40; 0" keyTimes="0; 0.027; 0.055; 0.082; 0.109; 0.137; 0.164; 0.191; 0.219; 0.246; 0.273; 0.301; 0.328; 0.355; 0.383; 0.41; 0.437; 0.464; 0.492; 0.519; 0.546; 0.574; 0.601; 0.628; 0.656; 0.683; 0.71; 0.738; 0.765; 0.792; 0.82; 0.847; 0.874; 0.902; 0.929; 0.956; 1" keySplines="0.333 0 0.667 1; 0.333 0 0.667 1; 0.333 0 0.667 1; 0.333 0 0.667 1; 0.333 0 0.667 1; 0.333 0 0.667 1; 0.333 0 0.667 1; 0.333 0 0.667 1; 0.333 0 0.667 1; 0.333 0 0.667 1; 0.333 0 0.667 1; 0.333 0 0.667 1; 0.333 0 0.667 1; 0.333 0 0.667 1; 0.333 0 0.667 1; 0.333 0 0.667 1; 0.333 0 0.667 1; 0.333 0 0.667 1; 0.333 0 0.667 1; 0.333 0 0.667 1; 0.333 0 0.667 1; 0.333 0 0.667 1; 0.333 0 0.667 1; 0.333 0 0.667 1; 0.333 0 0.667 1; 0.333 0 0.667 1; 0.333 0 0.667 1; 0.333 0 0.667 1; 0.333 0 0.667 1; 0.333 0 0.667 1; 0.333 0 0.667 1; 0.333 0 0.667 1; 0.333 0 0.667 1; 0.333 0 0.667 1; 0.333 0 0.667 1; 0.333 0 0.833 1" fill="freeze" /><g transform="scale(1,1) translate(-623.026,-413.024)"><g id="Group 6" transform="matrix(1,0,0,1,623.026,413.024)"><path fill="#ff3131" fill-opacity="1" d="M-3.18,26.552C-17.844,24.796,-28.308,11.484,-26.552,-3.18C-24.796,-17.844,-11.484,-28.308,3.18,-26.552C17.844,-24.796,28.308,-11.484,26.552,3.18C24.796,17.844,11.484,28.308,-3.18,26.552Z" /></g><g id="Group 5" transform="matrix(1,0,0,1,564.951,361.373)"><path stroke-linejoin="round" stroke-linecap="round" stroke-width="2" stroke-opacity="1" stroke="#a40000" fill="#ff3131" fill-opacity="1" d="M53.842,78.054C53.842,78.054,3.453,84.552,-34.528,50.795C-86.376,4.714,-60.192,-78.556,-60.192,-78.556C-60.192,-78.556,-45.63,-48.607,12.191,-9.67C45.525,12.778,66.804,26.368,66.804,26.368" /></g><g id="Group 4" transform="matrix(1,0,0,1,554.807,335.971)"><path stroke-linejoin="round" stroke-linecap="round" stroke-width="2" stroke-opacity="1" stroke="#a40000" fill="#a40000" fill-opacity="1" d="M-12.919,53.14C10.985,53.481,34.524,47.693,56.653,38.571C47.67,32.668,36.021,24.948,22.335,15.732C-35.486,-23.205,-50.048,-53.154,-50.048,-53.154C-50.048,-53.154,-67.61,2.724,-45.461,48.264C-34.95,51.362,-24.018,52.982,-12.919,53.14Z" /></g><g id="Group 3" transform="matrix(1,0,0,1,511.316,324.236)"><path stroke-linejoin="round" stroke-linecap="round" stroke-width="2" stroke-opacity="1" stroke="#a40000" d="M11.913,14.351C11.913,14.351,2.965,6.816,-5.048,-3.378C-10.797,-10.692,-11.913,-14.351,-11.913,-14.351" /></g><g id="Group 2" transform="matrix(1,0,0,1,509.736,342.368)"><path stroke-linejoin="round" stroke-linecap="round" stroke-width="2" stroke-opacity="1" stroke="#a40000" d="M11.589,14.069C11.589,14.069,3.033,7.741,-4.98,-2.453C-10.729,-9.767,-11.589,-14.069,-11.589,-14.069" /></g><g id="Group 1" transform="matrix(1,0,0,1,510.425,362.824)"><path stroke-linejoin="round" stroke-linecap="round" stroke-width="2" stroke-opacity="1" stroke="#a40000" d="M11.395,13.97C11.395,13.97,3.052,8.354,-4.961,-1.84C-10.71,-9.154,-11.395,-13.97,-11.395,-13.97" /></g></g></g></g></g></g></g></g></g></g></g></g></g></g></svg>